<svg width="19" height="18" viewBox="0 0 19 18" fill="none" xmlns="http://www.w3.org/2000/svg">
<path fill-rule="evenodd" clip-rule="evenodd" d="M3.55756 4.89794C3.67474 4.51381 4.03194 4.23438 4.45441 4.23438H14.9544C15.3769 4.23438 15.7341 4.51381 15.8513 4.89794L9.70441 8.99583L3.55756 4.89794ZM2.39193 5.16157C2.39183 5.16757 2.39182 5.17357 2.39191 5.17957V12.6719C2.39191 13.811 3.31532 14.7344 4.45441 14.7344H14.9544C16.0935 14.7344 17.0169 13.811 17.0169 12.6719V5.17956M15.8919 6.22292V12.6719C15.8919 13.1896 15.4722 13.6094 14.9544 13.6094H4.45441C3.93664 13.6094 3.51691 13.1896 3.51691 12.6719V6.22292L9.39239 10.1399C9.58133 10.2659 9.82748 10.2659 10.0164 10.1399L15.8919 6.22292ZM17.0169 5.16158C17.0113 4.02723 16.0901 3.10938 14.9544 3.10938H4.45441C3.31875 3.10938 2.39748 4.02723 2.39193 5.16157" fill="#282828"/>
</svg>
