<svg width="19" height="18" viewBox="0 0 19 18" fill="none" xmlns="http://www.w3.org/2000/svg">
<path fill-rule="evenodd" clip-rule="evenodd" d="M6.74329 3.52393C5.39709 3.52393 4.30579 4.61523 4.30579 5.96143V11.9614C4.30579 13.3076 5.39709 14.3989 6.74329 14.3989H12.7433C14.0895 14.3989 15.1808 13.3076 15.1808 11.9614V5.96143C15.1808 4.61523 14.0895 3.52393 12.7433 3.52393H6.74329ZM3.18079 5.96143C3.18079 3.99391 4.77577 2.39893 6.74329 2.39893H12.7433C14.7108 2.39893 16.3058 3.99391 16.3058 5.96143V11.9614C16.3058 13.9289 14.7108 15.5239 12.7433 15.5239H6.74329C4.77577 15.5239 3.18079 13.9289 3.18079 11.9614V5.96143ZM9.74329 7.27393C8.81131 7.27393 8.05579 8.02945 8.05579 8.96143C8.05579 9.89341 8.81131 10.6489 9.74329 10.6489C10.6753 10.6489 11.4308 9.89341 11.4308 8.96143C11.4308 8.02945 10.6753 7.27393 9.74329 7.27393ZM6.93079 8.96143C6.93079 7.40813 8.18999 6.14893 9.74329 6.14893C11.2966 6.14893 12.5558 7.40813 12.5558 8.96143C12.5558 10.5147 11.2966 11.7739 9.74329 11.7739C8.18999 11.7739 6.93079 10.5147 6.93079 8.96143ZM13.6808 5.58643C13.6808 5.27577 13.4289 5.02393 13.1183 5.02393C12.8076 5.02393 12.5558 5.27577 12.5558 5.58643V5.58743C12.5558 5.89809 12.8076 6.14993 13.1183 6.14993C13.4289 6.14993 13.6808 5.89809 13.6808 5.58743V5.58643Z" fill="#282828"/>
</svg>
