<svg width="19" height="18" viewBox="0 0 19 18" fill="none" xmlns="http://www.w3.org/2000/svg">
<path d="M16.7272 2.92987C15.9772 3.29737 15.2422 3.44662 14.4772 3.67237C13.6364 2.72362 12.3899 2.67112 11.1922 3.11962C9.99442 3.56812 9.20992 4.66462 9.22717 5.92237V6.67237C6.79342 6.73462 4.62592 5.62612 3.22717 3.67237C3.22717 3.67237 0.0906726 9.24712 6.22717 11.9224C4.82317 12.8576 3.42292 13.4884 1.72717 13.4224C4.20817 14.7746 6.91192 15.2396 9.25267 14.5601C11.9377 13.7801 14.1442 11.7679 14.9909 8.75362C15.2435 7.83688 15.3689 6.88977 15.3637 5.93887C15.3622 5.75212 16.4962 3.85987 16.7272 2.92912V2.92987Z" stroke="#282828" stroke-width="1.125" stroke-linecap="round" stroke-linejoin="round"/>
</svg>
