<svg width="19" height="14" viewBox="0 0 19 14" fill="none" xmlns="http://www.w3.org/2000/svg">
<g clip-path="url(#clip0_1_632)">
<path fill-rule="evenodd" clip-rule="evenodd" d="M0.495972 0H26.146V1.07734H0.495972V0ZM0.495972 2.15469H26.146V3.23203H0.495972V2.15469ZM0.495972 4.30664H26.146V5.38672H0.495972V4.30664ZM0.495972 6.46133H26.146V7.53867H0.495972V6.46133ZM0.495972 8.61602H26.146V9.69336H0.495972V8.61602ZM0.495972 10.768H26.146V11.8453H0.495972V10.768ZM0.495972 12.9227H26.146V14H0.495972V12.9227Z" fill="#BD3D44"/>
<path fill-rule="evenodd" clip-rule="evenodd" d="M0.496094 1.07739H26.1461V2.15474H0.496094V1.07739ZM0.496094 3.23208H26.1461V4.30669H0.496094V3.23208ZM0.496094 5.38403H26.1461V6.46138H0.496094V5.38403ZM0.496094 7.53872H26.1461V8.61606H0.496094V7.53872ZM0.496094 9.69341H26.1461V10.7708H0.496094V9.69341ZM0.496094 11.8454H26.1461V12.9227H0.496094V11.8454Z" fill="white"/>
<path fill-rule="evenodd" clip-rule="evenodd" d="M0.496582 0H10.7561V7.53867H0.496582V0Z" fill="#192F5D"/>
<path fill-rule="evenodd" clip-rule="evenodd" d="M1.35278 0.322754L1.44771 0.620801H1.74829L1.50571 0.804004L1.598 1.10479L1.35278 0.918848L1.11021 1.10205L1.20249 0.804004L0.957275 0.620801H1.26313L1.35278 0.322754ZM3.06401 0.322754L3.1563 0.620801H3.45952L3.21431 0.804004L3.30659 1.10479L3.06401 0.918848L2.8188 1.10205L2.91108 0.804004L2.66851 0.620801H2.96909L3.06401 0.322754ZM4.77261 0.322754L4.86753 0.620801H5.16548L4.9229 0.804004L5.01519 1.10479L4.76997 0.918848L4.52739 1.10205L4.61968 0.804004L4.37446 0.620801H4.67769L4.77261 0.322754ZM6.48384 0.322754L6.57612 0.620801H6.87935L6.63413 0.804004L6.72905 1.10479L6.48384 0.918848L6.23862 1.10205L6.33355 0.804004L6.08833 0.620801H6.38892L6.48384 0.322754ZM8.19243 0.322754L8.28735 0.620801H8.58794L8.34536 0.804004L8.43765 1.10479L8.19243 0.918848L7.94985 1.10205L8.04214 0.804004L7.79956 0.620801H8.10015L8.19243 0.322754ZM9.90366 0.322754L9.99595 0.620801H10.2992L10.054 0.804004L10.1489 1.10479L9.90366 0.918848L9.65845 1.10205L9.75337 0.804004L9.50815 0.620801H9.81138L9.90366 0.322754ZM2.20972 1.07744L2.302 1.37549H2.60522L2.36001 1.55869L2.44966 1.85674L2.21235 1.67354L1.96714 1.85674L2.05415 1.55869L1.81685 1.37549H2.11743L2.20972 1.07744ZM3.91831 1.07744L4.01323 1.37549H4.31382L4.0686 1.55869L4.16353 1.85674L3.91831 1.67354L3.6731 1.85674L3.76802 1.55869L3.5228 1.37549H3.82603L3.91831 1.07744ZM5.62954 1.07744L5.72183 1.37549H6.02505L5.77983 1.55869L5.87212 1.85674L5.62954 1.67354L5.38433 1.85674L5.47661 1.55869L5.23403 1.37549H5.53462L5.62954 1.07744ZM7.33813 1.07744L7.43306 1.37549H7.73364L7.48843 1.55869L7.58335 1.85674L7.33813 1.67354L7.09556 1.85674L7.18784 1.55869L6.94263 1.37549H7.24849L7.33813 1.07744ZM9.04937 1.07744L9.14165 1.37549H9.44487L9.19966 1.55869L9.29194 1.85674L9.04937 1.67354L8.80415 1.85674L8.89644 1.55869L8.65386 1.37549H8.95444L9.04937 1.07744ZM1.35278 1.82939L1.44771 2.13291H1.74829L1.50571 2.31611L1.598 2.61416L1.35278 2.42822L1.11021 2.61416L1.20249 2.31338L0.957275 2.13018H1.26313L1.35278 1.82939ZM3.06401 1.82939L3.1563 2.13018H3.45952L3.21431 2.31338L3.30659 2.61143L3.06401 2.42549L2.8188 2.61143L2.91108 2.31064L2.66851 2.12744H2.96909L3.06401 1.82939ZM4.77261 1.82939L4.86753 2.13018H5.16548L4.9229 2.31338L5.01519 2.61143L4.76997 2.42549L4.52739 2.61143L4.61968 2.31064L4.37446 2.12744H4.67769L4.77261 1.82939ZM6.48384 1.82939L6.57612 2.13018H6.87935L6.63413 2.31338L6.72905 2.61143L6.48384 2.42549L6.23862 2.61143L6.33355 2.31064L6.08833 2.12744H6.38892L6.48384 1.82939ZM8.19243 1.82939L8.28735 2.13018H8.58794L8.34536 2.31338L8.43765 2.61143L8.19243 2.42549L7.94985 2.61143L8.04214 2.31064L7.79956 2.12744H8.10015L8.19243 1.82939ZM9.90366 1.82939L9.99595 2.13018H10.2992L10.054 2.31338L10.1489 2.61143L9.90366 2.42549L9.65845 2.61143L9.75337 2.31064L9.50815 2.12744H9.81138L9.90366 1.82939ZM2.20972 2.58408L2.302 2.88213H2.60522L2.36001 3.06533L2.45229 3.36611L2.20972 3.18018L1.9645 3.36338L2.05679 3.06533L1.81421 2.88213H2.11479L2.20972 2.58408ZM3.91831 2.58408L4.01323 2.88213H4.31382L4.0686 3.06533L4.16353 3.36611L3.91831 3.18018L3.6731 3.36338L3.76802 3.06533L3.5228 2.88213H3.82603L3.91831 2.58408ZM5.62954 2.58408L5.72183 2.88213H6.02505L5.77983 3.06533L5.87212 3.36611L5.62954 3.18018L5.38433 3.36338L5.47661 3.06533L5.23403 2.88213H5.53462L5.62954 2.58408ZM7.33813 2.58408L7.43306 2.88213H7.73364L7.49107 3.06533L7.58335 3.36611L7.33813 3.18018L7.09556 3.36338L7.18784 3.06533L6.94263 2.88213H7.24849L7.33813 2.58408ZM9.04937 2.58408L9.14165 2.88213H9.44487L9.19966 3.06533L9.29194 3.36611L9.04937 3.18018L8.80415 3.36338L8.89644 3.06533L8.65386 2.88213H8.95444L9.04937 2.58408ZM1.35278 3.33877L1.44771 3.63682H1.74829L1.50571 3.82002L1.598 4.1208L1.35278 3.93486L1.11021 4.11807L1.20249 3.82002L0.957275 3.63682H1.26313L1.35278 3.33877ZM3.06401 3.33877L3.1563 3.63682H3.45952L3.21431 3.82002L3.30659 4.11807L3.06401 3.93486L2.8188 4.11807L2.91108 3.82002L2.66851 3.63682H2.96909L3.06401 3.33877ZM4.77261 3.33877L4.86753 3.63682H5.16548L4.9229 3.82002L5.01519 4.1208L4.76997 3.93486L4.52739 4.11807L4.61968 3.82002L4.37446 3.63682H4.67769L4.77261 3.33877ZM6.48384 3.33877L6.57612 3.63682H6.87935L6.63413 3.82002L6.72905 4.1208L6.48384 3.93486L6.23862 4.11807L6.33355 3.82002L6.08833 3.63682H6.38892L6.48384 3.33877ZM8.19243 3.33877L8.28735 3.63682H8.58794L8.34536 3.82002L8.43765 4.1208L8.19243 3.93486L7.94985 4.11807L8.04214 3.82002L7.79956 3.63682H8.10015L8.19243 3.33877ZM9.90366 3.33877L9.99595 3.63682H10.2992L10.054 3.82002L10.1489 4.1208L9.90366 3.93486L9.65845 4.11807L9.75337 3.82002L9.50815 3.63682H9.81138L9.90366 3.33877ZM2.20972 4.09346L2.302 4.3915H2.60522L2.36001 4.57471L2.45229 4.87275L2.20972 4.68682L1.9645 4.87275L2.05679 4.57197L1.81421 4.38877H2.11479L2.20972 4.09346ZM3.91831 4.09346L4.01323 4.3915H4.31382L4.0686 4.57471L4.16353 4.87275L3.91831 4.68682L3.6731 4.87275L3.76802 4.57197L3.5228 4.38877H3.82603L3.91831 4.09346ZM5.62954 4.09346L5.72183 4.3915H6.02505L5.77983 4.57471L5.87212 4.87275L5.62954 4.68682L5.38433 4.87275L5.47661 4.57197L5.23403 4.38877H5.53462L5.62954 4.09346ZM7.33813 4.09346L7.43306 4.3915H7.73364L7.49107 4.57471L7.58335 4.87275L7.33813 4.68682L7.09556 4.87275L7.18784 4.57197L6.94263 4.38877H7.24849L7.33813 4.09346ZM9.04937 4.09346L9.14165 4.3915H9.44487L9.19966 4.57471L9.29194 4.87275L9.04937 4.68682L8.80415 4.87275L8.89644 4.57197L8.65386 4.38877H8.95444L9.04937 4.09346ZM1.35278 4.84541L1.44771 5.14619H1.74829L1.50571 5.32939L1.598 5.62471L1.35278 5.4415L1.11021 5.62471L1.20249 5.32666L0.957275 5.14346H1.26313L1.35278 4.84541ZM3.06401 4.84541L3.1563 5.14619H3.45952L3.21431 5.32939L3.30923 5.62471L3.06401 5.4415L2.8188 5.62471L2.91372 5.32666L2.66851 5.14346H2.96909L3.06401 4.84541ZM4.77261 4.84541L4.86753 5.14619H5.16548L4.9229 5.32939L5.01519 5.62471L4.76997 5.4415L4.52739 5.62471L4.61968 5.32666L4.37446 5.14346H4.67769L4.77261 4.84541ZM6.48384 4.84541L6.57612 5.14619H6.87935L6.63413 5.32939L6.72905 5.62471L6.48384 5.4415L6.23862 5.62471L6.33355 5.32666L6.08833 5.14346H6.38892L6.48384 4.84541ZM8.19243 4.84541L8.28735 5.14619H8.58794L8.34536 5.32939L8.43765 5.62471L8.19243 5.4415L7.94985 5.62471L8.04214 5.32666L7.79956 5.14346H8.10015L8.19243 4.84541ZM9.90366 4.84541L9.99595 5.14619H10.2992L10.054 5.32939L10.1489 5.62471L9.90366 5.4415L9.65845 5.62471L9.75337 5.32666L9.50815 5.14346H9.81138L9.90366 4.84541ZM2.20972 5.6001L2.302 5.89814H2.60522L2.36001 6.08135L2.45229 6.38213L2.20972 6.19619L1.9645 6.37939L2.05679 6.08135L1.81421 5.89814H2.11479L2.20972 5.6001ZM3.91831 5.6001L4.01323 5.89814H4.31382L4.0686 6.08135L4.16353 6.38213L3.91831 6.19619L3.6731 6.37939L3.76802 6.08135L3.5228 5.89814H3.82603L3.91831 5.6001ZM5.62954 5.6001L5.72183 5.89814H6.02505L5.77983 6.08135L5.87212 6.38213L5.62954 6.19619L5.38433 6.37939L5.47661 6.08135L5.23403 5.89814H5.53462L5.62954 5.6001ZM7.33813 5.6001L7.43306 5.89814H7.73364L7.49107 6.08135L7.58335 6.38213L7.33813 6.19619L7.09556 6.37939L7.18784 6.08135L6.94263 5.89814H7.24849L7.33813 5.6001ZM9.04937 5.6001L9.14165 5.89814H9.44487L9.19966 6.08135L9.29194 6.38213L9.04937 6.19619L8.80415 6.37939L8.89644 6.08135L8.65386 5.89814H8.95444L9.04937 5.6001ZM1.35278 6.35478L1.44771 6.65283H1.74829L1.50571 6.83604L1.598 7.13408L1.35278 6.95088L1.11021 7.13408L1.20249 6.8333L0.957275 6.6501H1.26313L1.35278 6.35478ZM3.06401 6.35478L3.1563 6.65283H3.45952L3.21431 6.83604L3.30923 7.13408L3.06401 6.95088L2.8188 7.13408L2.91372 6.8333L2.66851 6.6501H2.96909L3.06401 6.35478ZM4.77261 6.35478L4.86753 6.65283H5.16548L4.92817 6.83604L5.02046 7.13408L4.77524 6.95088L4.53267 7.13408L4.62495 6.8333L4.37974 6.6501H4.68296L4.77261 6.35478ZM6.48384 6.35478L6.57612 6.65283H6.87935L6.63413 6.83604L6.72905 7.13408L6.48384 6.95088L6.23862 7.13408L6.33355 6.8333L6.08833 6.6501H6.38892L6.48384 6.35478ZM8.19243 6.35478L8.28735 6.65283H8.58794L8.34536 6.83604L8.43765 7.13408L8.19243 6.95088L7.94985 7.13408L8.04214 6.8333L7.79956 6.6501H8.10015L8.19243 6.35478ZM9.90366 6.35478L9.99595 6.65283H10.2992L10.054 6.83604L10.1489 7.13408L9.90366 6.95088L9.65845 7.13408L9.75337 6.8333L9.50815 6.6501H9.81138L9.90366 6.35478Z" fill="white"/>
</g>
<defs>
<clipPath id="clip0_1_632">
<rect width="18" height="14" fill="white" transform="translate(0.5)"/>
</clipPath>
</defs>
</svg>
